# 3ds Max Wavefront OBJ Exporter v0.97b - (c)2007 guruware
# File Created: 28.07.2014 17:54:54

mtllib selected.mtl

#
# object Pyramid001
#

v  15.0000 16.9961 15.0000
v  -15.0000 16.9961 15.0000
v  -0.0000 -43.0039 0.0000
v  15.0000 16.9961 -15.0000
v  -15.0000 16.9961 -15.0000
v  -0.0000 16.9961 0.0000
# 6 vertices

vn 0.0000 -0.2425 0.9701
vn 0.9701 -0.2425 -0.0000
vn 0.0000 -0.2425 -0.9701
vn -0.9701 -0.2425 -0.0000
vn 0.0000 1.0000 -0.0000
# 5 vertex normals

vt 1.0000 -0.0000 0.0000
vt 0.0000 -0.0000 0.0000
vt 0.5000 1.0000 0.0000
vt 1.0000 1.0000 0.0000
vt 0.5000 0.5000 0.0000
vt 0.0000 1.0000 0.0000
vt 1.0000 0.0000 0.0000
vt 0.0000 0.0000 0.0000
# 8 texture coords

g Pyramid001
usemtl wire_008061138
s 4
f 1/1/1 2/2/1 3/3/1 
s 2
f 4/1/2 1/2/2 3/3/2 
s 16
f 5/1/3 4/2/3 3/3/3 
s 32
f 2/1/4 5/2/4 3/3/4 
s 8
f 1/4/5 6/5/5 2/6/5 
f 4/7/5 6/5/5 1/4/5 
f 5/8/5 6/5/5 4/7/5 
f 2/6/5 6/5/5 5/8/5 
# 0 polygons - 8 triangles

