# 3ds Max Wavefront OBJ Exporter v0.97b - (c)2007 guruware
# File Created: 11.08.2014 17:23:20

mtllib BaseCore.mtl

#
# object Pyramid001
#

v  0.1551 18.4830 -0.2820
v  -1.7734 14.3176 1.7236
v  2.0835 14.3176 1.7236
v  2.0835 14.3176 -2.2875
v  -1.7734 14.3176 -2.2875
v  0.1551 14.3176 -0.2820
# 6 vertices

vn 0.0000 0.4338 0.9010
vn 0.9075 0.4201 -0.0000
vn 0.0000 0.4338 -0.9010
vn -0.9075 0.4201 -0.0000
vn 0.0000 -1.0000 -0.0000
# 5 vertex normals

vt 0.5000 1.0000 0.0000
vt 0.0000 0.0000 0.0000
vt 1.0000 0.0000 0.0000
vt 0.0192 0.0000 0.0000
vt 1.0192 0.0000 0.0000
vt 0.0000 1.0000 0.0000
vt 0.5000 0.5000 0.0000
vt 1.0000 1.0000 0.0000
# 8 texture coords

g Pyramid001
usemtl wire_135006006
s 4
f 1/1/1 2/2/1 3/3/1 
s 2
f 1/1/2 3/4/2 4/5/2 
s 16
f 1/1/3 4/2/3 5/3/3 
s 32
f 1/1/4 5/4/4 2/5/4 
s 8
f 2/6/5 6/7/5 3/8/5 
f 3/8/5 6/7/5 4/3/5 
f 4/3/5 6/7/5 5/2/5 
f 5/2/5 6/7/5 2/6/5 
# 0 polygons - 8 triangles

